<?xml version="1.0" encoding="utf-8"?>
<!-- Generator: Adobe Illustrator 22.1.0, SVG Export Plug-In . SVG Version: 6.00 Build 0)  -->
<svg version="1.1" id="레이어_1" xmlns="http://www.w3.org/2000/svg" xmlns:xlink="http://www.w3.org/1999/xlink" x="0px"
	 y="0px" viewBox="0 0 96 120" style="enable-background:new 0 0 96 120;" xml:space="preserve">
<path d="M73.1,33.2c0,1.6-1.3,3-2.9,3s-2.9-1.4-2.9-3c0-1.6,1.3-3,2.9-3S73.1,31.6,73.1,33.2z"/>
<path d="M94.5,29c-0.2-0.5-0.5-0.8-1-1.1c-0.5-0.2-1-0.2-1.4,0l-1.4,0.6c-2.3,1.1-4.3,2-5.6,2c-0.5,0-0.8-0.1-1.3-0.6
	c-0.1-0.2-0.2-0.4-0.2-0.6c0.2-1,1.5-3.4,8.7-8.3c0.7-0.5,1-1.4,0.6-2.2c-3.3-8.1-8.3-11.3-13.2-8.9c-5.1,2.3-9.1,7-13.1,11.5
	c-2.3-1.2-5.3-1.4-9.4-1.4c-0.5,0.1-1,0.2-1.3,0.5c-0.4,0.4-0.5,0.8-0.5,1.3c0,2.1,0.1,4.4,1.2,8c-4.2-1.3-9-2.4-14.3-2.4
	c-17.9,0-33.1,10.5-33.1,23v7.1c0,6.2,4.7,9.8,10.2,10.9c0,0.2,0.1,0.5,0.2,0.6c0.5,0.9,0.8,1.7,1.2,2.4c1.2,2.2,1.9,3.6,1.9,6.9
	c0,0.5,0.2,0.9,0.5,1.2h2.6c1.9,0.1,7.7,0,9.6,0h2.6c0.3-0.4,0.5-0.7,0.5-1.2c0-3.3,0.7-4.7,1.8-6.8c0.4-0.7,0.8-1.5,1.3-2.5
	c0.1-0.1,0.1-0.2,0.1-0.4h4.6c0,0.1,0,0.3,0.1,0.4c0.5,1,0.9,1.8,1.3,2.5c1.1,2,1.8,3.3,1.8,6.8c0,0.5,0.2,0.9,0.5,1.2h2.7
	c1.4,0,4.1,0,5.7,0h2.6c0.3-0.4,0.5-0.7,0.5-1.2c0-3.3,0.7-4.7,1.8-6.8c0.4-0.7,0.8-1.5,1.3-2.5c0.1-0.2,0.1-0.4,0.1-0.5
	c5.5-1.4,14.6-12.2,16.2-20.6c7-0.8,11.3-2.8,13.6-6.3C96.4,38.4,96.4,34.2,94.5,29L94.5,29z M70.2,38.9c-3.1,0-5.6-2.5-5.6-5.7
	s2.5-5.7,5.6-5.7s5.6,2.5,5.6,5.7C75.9,36.4,73.4,38.9,70.2,38.9z"/>
<path d="M14.2,48.3c0,0-4.7,3.6-10.4-0.8c0,0,4,8,10.9,4"/>
</svg>
